<svg width="64" height="70" viewBox="0 0 64 70" fill="none" xmlns="http://www.w3.org/2000/svg">
<path d="M38 4.1547C34.2872 2.01111 29.7128 2.01111 26 4.1547L8.28719 14.3812C4.57437 16.5248 2.28719 20.4863 2.28719 24.7735V45.2265C2.28719 49.5137 4.57437 53.4752 8.28719 55.6188L26 65.8453C29.7128 67.9889 34.2872 67.9889 38 65.8453L55.7128 55.6188C59.4256 53.4752 61.7128 49.5137 61.7128 45.2265V24.7735C61.7128 20.4863 59.4256 16.5248 55.7128 14.3812L38 4.1547Z" fill="black" stroke="white" stroke-width="4"/>
<path d="M43.985 32.4751C42.9207 30.6704 39.8026 29 37.9438 29C35.4853 29 34.451 30.4915 32.757 30.4915C31.0031 30.4915 29.3991 29.0895 27.2854 29.0895C24.3923 29.1044 20 31.7592 20 38.0085C20 43.6909 25.1868 49.9999 28.1249 49.9999C29.9088 50.0148 30.3435 48.8813 32.757 48.8813C35.1705 48.8663 35.6952 50.0148 37.4791 49.9999C39.4878 49.9849 41.0468 47.7925 42.2011 46.0624C43.0256 44.8245 43.3554 44.1831 44 42.7812C39.263 41.6029 38.3186 34.0412 43.985 32.4751Z" stroke="white" stroke-width="2" stroke-miterlimit="10" stroke-linecap="round" stroke-linejoin="round"/>
<path d="M36.9006 24.395C37.95 23.255 38.7295 21.65 38.4447 20C36.7357 20.105 34.7869 21.05 33.6177 22.25C32.5683 23.345 31.7439 24.98 32.0736 26.555C33.9325 26.6 35.7913 25.625 36.9006 24.395Z" stroke="white" stroke-width="2" stroke-miterlimit="10" stroke-linecap="round" stroke-linejoin="round"/>
</svg>
