<svg width="48" height="50" viewBox="0 0 48 50" fill="none" xmlns="http://www.w3.org/2000/svg">
<path d="M30 4.1547C26.2872 2.01111 21.7128 2.01111 18 4.1547L8.94744 9.3812C5.23463 11.5248 2.94744 15.4863 2.94744 19.7735V30.2265C2.94744 34.5137 5.23463 38.4752 8.94744 40.6188L18 45.8453C21.7128 47.9889 26.2872 47.9889 30 45.8453L39.0526 40.6188C42.7654 38.4752 45.0526 34.5137 45.0526 30.2265V19.7735C45.0526 15.4863 42.7654 11.5248 39.0526 9.3812L30 4.1547Z" fill="#F9B8D6" stroke="#FBD3E6" stroke-width="4"/>
<g style="mix-blend-mode:overlay">
<path d="M38.9548 26.215C38.2798 34.48 31.0498 40.615 22.7848 39.955C14.5348 39.28 8.3848 32.05 9.0448 23.785C9.7198 15.535 16.9498 9.38501 25.2148 10.045C33.4648 10.72 39.6148 17.965 38.9548 26.215Z" fill="black"/>
<path fill-rule="evenodd" clip-rule="evenodd" d="M14.9998 18.3849C15.3312 18.3849 15.5998 18.6536 15.5998 18.9849V18.9999C15.5998 19.3313 15.3312 19.5999 14.9998 19.5999C14.6685 19.5999 14.3998 19.3313 14.3998 18.9999V18.9849C14.3998 18.6536 14.6685 18.3849 14.9998 18.3849ZM19.3637 25.4263C19.4316 24.3068 19.8342 23.3581 20.3942 22.7231C20.9526 22.09 21.6422 21.7888 22.3318 21.8617L22.3323 21.8617C23.036 21.9355 23.7003 22.3896 24.1875 23.1548C24.6735 23.9181 24.9538 24.9535 24.8859 26.0737C24.8181 27.1932 24.4155 28.1419 23.8555 28.7769C23.2971 29.41 22.6075 29.7112 21.9179 29.6383L21.9174 29.6383C21.2137 29.5645 20.5494 29.1104 20.0622 28.3453C19.5761 27.5819 19.2958 26.5466 19.3637 25.4263ZM19.4942 21.9294C20.252 21.0701 21.3024 20.5463 22.4577 20.6683C23.6138 20.7896 24.5695 21.5205 25.1997 22.5103C25.8312 23.5019 26.1659 24.7916 26.0837 26.1463C26.0016 27.5018 25.5117 28.7131 24.7555 29.5706C23.9977 30.4299 22.9475 30.9537 21.7923 30.8317C20.636 30.7105 19.6803 29.9796 19.05 28.9898C18.4185 27.9981 18.0838 26.7085 18.1659 25.3537C18.2481 23.9982 18.738 22.7869 19.4942 21.9294ZM15.5998 23.5C15.5998 23.1686 15.3312 22.9 14.9998 22.9C14.6685 22.9 14.3998 23.1686 14.3998 23.5V29.5C14.3998 29.8313 14.6685 30.1 14.9998 30.1C15.3312 30.1 15.5998 29.8313 15.5998 29.5V23.5ZM35.2229 22.8702C34.5268 21.5799 33.0147 20.4659 31.3663 20.6696L31.3654 20.6697C30.127 20.8245 28.7141 21.6793 28.4215 23.1424L28.4211 23.1442C28.2925 23.7983 28.489 24.3562 28.81 24.7917C29.1187 25.2105 29.5465 25.5251 29.9299 25.7538C30.3941 26.0368 30.9646 26.2308 31.4578 26.3986L31.4579 26.3986C31.6094 26.4501 31.7537 26.4992 31.8853 26.5476C32.5049 26.7754 32.9532 27.013 33.2312 27.4032L33.2329 27.4056C33.5746 27.8802 33.5102 28.4371 33.0456 28.8908L33.0455 28.8908L33.0383 28.8981C31.949 29.9994 30.1312 29.8312 29.1643 28.6164C28.9579 28.3571 28.5805 28.3142 28.3212 28.5206C28.0619 28.727 28.019 29.1044 28.2254 29.3637C29.5975 31.0877 32.2469 31.4003 33.8879 29.7456C34.7099 28.9397 34.9437 27.7293 34.2077 26.7057C33.7056 26.0017 32.9544 25.6621 32.2994 25.4213C32.1008 25.3483 31.9141 25.2846 31.7379 25.2245L31.7379 25.2245L31.7379 25.2245C31.2806 25.0685 30.894 24.9366 30.5527 24.7281L30.5527 24.7281L30.5469 24.7246C30.2261 24.5335 29.9502 24.3161 29.7759 24.0797C29.6134 23.8592 29.5474 23.6374 29.5984 23.3768C29.7562 22.5904 30.5928 21.9758 31.5139 21.8605C32.5353 21.7345 33.6329 22.4503 34.1668 23.4399C34.3241 23.7316 34.6881 23.8404 34.9797 23.6831C35.2714 23.5258 35.3802 23.1618 35.2229 22.8702Z" fill="white"/>
</g>
</svg>
