<svg width="48" height="50" viewBox="0 0 48 50" fill="none" xmlns="http://www.w3.org/2000/svg">
<path d="M30 4.1547C26.2872 2.01111 21.7128 2.01111 18 4.1547L8.94744 9.3812C5.23463 11.5248 2.94744 15.4863 2.94744 19.7735V30.2265C2.94744 34.5137 5.23463 38.4752 8.94744 40.6188L18 45.8453C21.7128 47.9889 26.2872 47.9889 30 45.8453L39.0526 40.6188C42.7654 38.4752 45.0526 34.5137 45.0526 30.2265V19.7735C45.0526 15.4863 42.7654 11.5248 39.0526 9.3812L30 4.1547Z" fill="#3789FF" stroke="#76AEFF" stroke-width="4"/>
<g style="mix-blend-mode:overlay">
<path fill-rule="evenodd" clip-rule="evenodd" d="M33.7 19.7L29.29 15.29C29.11 15.11 28.85 15 28.59 15H15C14.45 15 14 15.45 14 16V34C14 34.55 14.45 35 15 35H33C33.55 35 34 34.55 34 34V20.41C34 20.15 33.89 19.89 33.7 19.7ZM26.0252 19.4362C26.3366 19.5495 26.4971 19.8938 26.3838 20.2052L22.7438 30.2052C22.6304 30.5166 22.2861 30.6772 21.9747 30.5638C21.6633 30.4505 21.5028 30.1062 21.6161 29.7948L25.2561 19.7948C25.3695 19.4834 25.7138 19.3229 26.0252 19.4362ZM20.4243 22.4243C20.6586 22.19 20.6586 21.8101 20.4243 21.5757C20.19 21.3414 19.8101 21.3414 19.5758 21.5757L16.5758 24.5757C16.3414 24.8101 16.3414 25.19 16.5758 25.4243L19.5758 28.4243C19.8101 28.6586 20.19 28.6586 20.4243 28.4243C20.6586 28.19 20.6586 27.8101 20.4243 27.5757L17.8486 25L20.4243 22.4243ZM28.4243 21.5757C28.19 21.3414 27.8101 21.3414 27.5758 21.5757C27.3414 21.8101 27.3414 22.19 27.5758 22.4243L30.1515 25L27.5758 27.5757C27.3414 27.8101 27.3414 28.19 27.5758 28.4243C27.8101 28.6586 28.19 28.6586 28.4243 28.4243L31.4243 25.4243C31.6586 25.19 31.6586 24.8101 31.4243 24.5757L28.4243 21.5757Z" fill="black"/>
</g>
</svg>
