<svg width="173" height="191" viewBox="0 0 173 191" fill="none" xmlns="http://www.w3.org/2000/svg">
<path d="M56.5 13.3205C71.141 4.86751 78.4615 0.641016 86.5 0.641016C94.5385 0.641016 101.859 4.86751 116.5 13.3205L142.67 28.4295C157.311 36.8825 164.631 41.109 168.65 48.0705C172.67 55.032 172.67 63.485 172.67 80.391V110.609C172.67 127.515 172.67 135.968 168.65 142.929C164.631 149.891 157.311 154.118 142.67 162.571L116.5 177.679C101.859 186.132 94.5385 190.359 86.5 190.359C78.4615 190.359 71.141 186.132 56.5 177.679L30.3305 162.571C15.6895 154.118 8.36895 149.891 4.34971 142.929C0.330475 135.968 0.330475 127.515 0.330475 110.609V80.391C0.330475 63.485 0.330475 55.032 4.34971 48.0705C8.36895 41.109 15.6895 36.8825 30.3305 28.4295L56.5 13.3205Z" fill="url(#paint0_linear_126_5122)"/>
<defs>
<linearGradient id="paint0_linear_126_5122" x1="-82" y1="26.5" x2="121" y2="229.5" gradientUnits="userSpaceOnUse">
<stop stop-color="#05ECF1"/>
<stop offset="1" stop-color="#534BE5"/>
</linearGradient>
</defs>
</svg>
