<svg width="238" height="245" viewBox="0 0 238 245" fill="none" xmlns="http://www.w3.org/2000/svg">
<path d="M11.3913 130.087C-0.01922 65.3748 -5.72447 33.0188 10.2949 14.9489C13.559 11.2671 17.3486 8.0873 21.5412 5.5122C42.1183 -7.12606 72.9921 4.1111 134.74 26.5854C196.487 49.0597 227.361 60.2968 235 83.2049C236.557 87.8726 237.416 92.7444 237.55 97.663C238.206 121.802 213.038 142.921 162.7 185.159C112.363 227.397 87.1948 248.516 63.5362 243.678C58.7157 242.692 54.067 241 49.7405 238.656C28.507 227.155 22.8018 194.799 11.3913 130.087Z" fill="url(#paint0_linear_126_5123)"/>
<defs>
<linearGradient id="paint0_linear_126_5123" x1="-16.5695" y1="-28.4867" x2="222.457" y2="256.374" gradientUnits="userSpaceOnUse">
<stop stop-color="#FFB35D"/>
<stop offset="1" stop-color="#DF3189"/>
</linearGradient>
</defs>
</svg>
