<svg width="64" height="70" viewBox="0 0 64 70" fill="none" xmlns="http://www.w3.org/2000/svg">
<path d="M38 4.1547C34.2872 2.01111 29.7128 2.01111 26 4.1547L8.28719 14.3812C4.57437 16.5248 2.28719 20.4863 2.28719 24.7735V45.2265C2.28719 49.5137 4.57437 53.4752 8.28719 55.6188L26 65.8453C29.7128 67.9889 34.2872 67.9889 38 65.8453L55.7128 55.6188C59.4256 53.4752 61.7128 49.5137 61.7128 45.2265V24.7735C61.7128 20.4863 59.4256 16.5248 55.7128 14.3812L38 4.1547Z" fill="white" stroke="black" stroke-width="4"/>
<path fill-rule="evenodd" clip-rule="evenodd" d="M17 30.4345V44H47V30.4345L32.6575 39.8288L32 40.2595L31.3425 39.8288L17 30.4345ZM45.8 26H32H18.2V28.3515L32 37.3905L45.8 28.3515V26Z" fill="black"/>
</svg>
