<svg width="38" height="40" viewBox="0 0 38 40" fill="none" xmlns="http://www.w3.org/2000/svg">
<path d="M23.75 3.01036C20.8107 1.31335 17.1893 1.31335 14.25 3.01036L6.66154 7.39156C3.72223 9.08857 1.91154 12.2248 1.91154 15.6188V24.3812C1.91154 27.7752 3.72223 30.9114 6.66154 32.6084L14.25 36.9896C17.1893 38.6867 20.8107 38.6866 23.75 36.9896L31.3385 32.6084C34.2778 30.9114 36.0885 27.7752 36.0885 24.3812V15.6188C36.0885 12.2248 34.2778 9.08857 31.3385 7.39156L23.75 3.01036Z" fill="#FFC5C8" stroke="#FFEDEE" stroke-width="3"/>
<g style="mix-blend-mode:overlay">
<path fill-rule="evenodd" clip-rule="evenodd" d="M10.6667 18.1012V25H27.3333V18.1012L19.6575 23.1288L19 23.5595L18.3425 23.1288L10.6667 18.1012ZM26.1333 15H19H11.8667V16.0182L19 20.6905L26.1333 16.0182V15Z" fill="black"/>
<path d="M10.6667 15V16.6667L19 22.125L27.3333 16.6667V15H10.6667Z" fill="white"/>
</g>
</svg>
